<svg version="1.2" xmlns="http://www.w3.org/2000/svg" viewBox="0 0 190 189" width="190" height="189">
	<style>
		.s0 { fill: #EFEFEF }
	</style>
	<g id="create">
		<g id="create">
			<path id="createId" class="s0" d="m138.8 188.9h-87.3c-27.9 0-50.7-22.8-50.7-50.8v-87.2c0-28 22.8-50.8 50.7-50.8h47.3c4.7 0 8.5 3.9 8.5 8.6 0 4.7-3.8 8.5-8.5 8.5h-47.3c-18.6 0-33.7 15.1-33.7 33.7v87.2c0 18.6 15.1 33.7 33.7 33.7h87.3c18.6 0 33.7-15.1 33.7-33.7v-47.2c0-4.7 3.8-8.5 8.5-8.5 4.7 0 8.5 3.8 8.5 8.5v47.2c0 28-22.8 50.8-50.7 50.8z"/>
		</g>
		<g id="create">
			<path id="createId" class="s0" d="m99.7 98.5c-2.2 0-4.4-0.8-6.1-2.5-3.3-3.3-3.3-8.7 0-12l70.5-70.5c3.4-3.4 8.8-3.4 12.1 0 3.3 3.3 3.3 8.7 0 12l-70.5 70.5c-1.7 1.7-3.9 2.5-6 2.5z"/>
		</g>
	</g>
</svg>