<svg version="1.2" xmlns="http://www.w3.org/2000/svg" viewBox="0 0 215 197" width="215" height="197">
	<style>
		.s0 { fill: #EFEFEF } 
	</style>
	<g id="home">
		<path id="homeId" fill-rule="evenodd" class="s0" d="m185.5 196.4h-37.7c-16 0-29-13-29-29v-38.1c0-6.2-5-11.2-11.2-11.2-6.3 0-11.3 5-11.3 11.2v38.1c0 16-13 29-29 29h-37.7c-16 0-29-13-29-29v-67.6c0-14.2 6.3-27.6 17.2-36.8l62.4-52.4c15.9-13.3 38.9-13.3 54.7 0l62.4 52.4c11 9.2 17.2 22.6 17.2 36.8v67.6c0 16-13 29-29 29zm-77.9-95.4c15.6 0 28.3 12.7 28.3 28.3v38.1c0 6.6 5.3 12 11.9 12h37.7c6.6 0 12-5.4 12-12v-67.6c0-9.2-4.1-17.8-11.1-23.8l-62.4-52.4c-9.5-8-23.3-8-32.9 0l-62.4 52.4c-7 6-11.1 14.6-11.1 23.8v67.6c0 6.6 5.4 12 12 12h37.7c6.6 0 12-5.4 12-12v-38.1c0-15.6 12.7-28.3 28.3-28.3z"/>
	</g>
</svg>